{
  "accessors": [
    {
      "bufferView": 2,
      "componentType": 5126,
      "count": 19929,
      "max": [
        273.2222900390625,
        358.3014831542969,
        496.8377380371094
      ],
      "min": [
        -273.2222900390625,
        -358.3014831542969,
        -496.8377380371094
      ],
      "type": "VEC3"
    },
    {
      "bufferView": 2,
      "byteOffset": 239148,
      "componentType": 5126,
      "count": 19929,
      "max": [
        0.9998664259910583,
        0.9999949336051941,
        0.999998927116394
      ],
      "min": [
        -0.9998635053634644,
        -0.9999859929084778,
        -0.9999997615814209
      ],
      "type": "VEC3"
    },
    {
      "bufferView": 1,
      "componentType": 5126,
      "count": 19929,
      "max": [
        1.0,
        0.999875009059906
      ],
      "min": [
        -5.960464477539063e-08,
        5.6862831115722656e-05
      ],
      "type": "VEC2"
    },
    {
      "bufferView": 0,
      "componentType": 5125,
      "count": 112878,
      "type": "SCALAR"
    },
    {
      "bufferView": 2,
      "byteOffset": 478296,
      "componentType": 5126,
      "count": 161,
      "max": [
        7.588401794433594,
        11.12603759765625,
        12.77435302734375
      ],
      "min": [
        -7.588409423828125,
        -11.1260986328125,
        -12.774383544921875
      ],
      "type": "VEC3"
    },
    {
      "bufferView": 2,
      "byteOffset": 480228,
      "componentType": 5126,
      "count": 161,
      "max": [
        -0.40624648332595825,
        0.5556266903877258,
        0.8968501091003418
      ],
      "min": [
        -0.9987172484397888,
        -0.7774394154548645,
        -0.06535883992910385
      ],
      "type": "VEC3"
    },
    {
      "bufferView": 1,
      "byteOffset": 159432,
      "componentType": 5126,
      "count": 161,
      "max": [
        0.9157347679138184,
        0.9157347679138184
      ],
      "min": [
        0.08426520228385925,
        0.08426523208618164
      ],
      "type": "VEC2"
    },
    {
      "bufferView": 0,
      "byteOffset": 451512,
      "componentType": 5125,
      "count": 864,
      "type": "SCALAR"
    },
    {
      "bufferView": 2,
      "byteOffset": 482160,
      "componentType": 5126,
      "count": 161,
      "max": [
        7.588409423828125,
        11.12603759765625,
        12.77435302734375
      ],
      "min": [
        -7.588401794433594,
        -11.1260986328125,
        -12.774383544921875
      ],
      "type": "VEC3"
    },
    {
      "bufferView": 2,
      "byteOffset": 484092,
      "componentType": 5126,
      "count": 161,
      "max": [
        0.9987172484397888,
        0.5556266903877258,
        0.8968498110771179
      ],
      "min": [
        0.4062466025352478,
        -0.7774373888969421,
        -0.06535837054252625
      ],
      "type": "VEC3"
    },
    {
      "bufferView": 1,
      "byteOffset": 160720,
      "componentType": 5126,
      "count": 161,
      "max": [
        0.9157347679138184,
        0.9157347679138184
      ],
      "min": [
        0.08426520228385925,
        0.08426523208618164
      ],
      "type": "VEC2"
    },
    {
      "bufferView": 0,
      "byteOffset": 454968,
      "componentType": 5125,
      "count": 864,
      "type": "SCALAR"
    },
    {
      "bufferView": 2,
      "byteOffset": 486024,
      "componentType": 5126,
      "count": 356,
      "max": [
        59.51698303222656,
        48.291351318359375,
        144.40911865234375
      ],
      "min": [
        -45.41300964355469,
        -62.28594970703125,
        -145.18243408203125
      ],
      "type": "VEC3"
    },
    {
      "bufferView": 2,
      "byteOffset": 490296,
      "componentType": 5126,
      "count": 356,
      "max": [
        0.9523102045059204,
        0.9976993799209595,
        0.8988128900527954
      ],
      "min": [
        -0.9782595038414001,
        -0.9899756908416748,
        -0.7951244711875916
      ],
      "type": "VEC3"
    },
    {
      "bufferView": 1,
      "byteOffset": 162008,
      "componentType": 5126,
      "count": 356,
      "max": [
        0.9999999403953552,
        1.0
      ],
      "min": [
        -5.960464477539063e-08,
        0.0
      ],
      "type": "VEC2"
    },
    {
      "bufferView": 0,
      "byteOffset": 458424,
      "componentType": 5125,
      "count": 1632,
      "type": "SCALAR"
    },
    {
      "bufferView": 2,
      "byteOffset": 494568,
      "componentType": 5126,
      "count": 356,
      "max": [
        45.41302490234375,
        48.291351318359375,
        144.408935546875
      ],
      "min": [
        -59.51693344116211,
        -62.285919189453125,
        -145.1824951171875
      ],
      "type": "VEC3"
    },
    {
      "bufferView": 2,
      "byteOffset": 498840,
      "componentType": 5126,
      "count": 356,
      "max": [
        0.9782593250274658,
        0.9976994395256042,
        0.8988115191459656
      ],
      "min": [
        -0.9523102045059204,
        -0.9899762868881226,
        -0.7951240539550781
      ],
      "type": "VEC3"
    },
    {
      "bufferView": 1,
      "byteOffset": 164856,
      "componentType": 5126,
      "count": 356,
      "max": [
        0.9999999403953552,
        1.0
      ],
      "min": [
        -5.960464477539063e-08,
        0.0
      ],
      "type": "VEC2"
    },
    {
      "bufferView": 0,
      "byteOffset": 464952,
      "componentType": 5125,
      "count": 1632,
      "type": "SCALAR"
    }
  ],
  "asset": {
    "extras": {
      "author": "onderonvermez (https://sketchfab.com/onderonvermez)",
      "license": "CC-BY-4.0 (http://creativecommons.org/licenses/by/4.0/)",
      "source": "https://sketchfab.com/3d-models/elephant-93c389f9be37411c9ae4e97ef08bbeee",
      "title": "ELEPHANT"
    },
    "generator": "Sketchfab-12.67.0",
    "version": "2.0"
  },
  "bufferViews": [
    {
      "buffer": 0,
      "byteLength": 471480,
      "name": "floatBufferViews",
      "target": 34963
    },
    {
      "buffer": 0,
      "byteLength": 167704,
      "byteOffset": 471480,
      "byteStride": 8,
      "name": "floatBufferViews",
      "target": 34962
    },
    {
      "buffer": 0,
      "byteLength": 503112,
      "byteOffset": 639184,
      "byteStride": 12,
      "name": "floatBufferViews",
      "target": 34962
    }
  ],
  "buffers": [
    {
      "byteLength": 1142296,
      "uri": "scene.bin"
    }
  ],
  "images": [
    {
      "uri": "textures/ElphSkin_baseColor.jpeg"
    },
    {
      "uri": "textures/Ele_Tuskh_baseColor.jpeg"
    }
  ],
  "materials": [
    {
      "doubleSided": true,
      "name": "ElphSkin",
      "pbrMetallicRoughness": {
        "baseColorTexture": {
          "index": 0
        },
        "metallicFactor": 0.0,
        "roughnessFactor": 0.6
      }
    },
    {
      "doubleSided": true,
      "name": "ElepEYE",
      "pbrMetallicRoughness": {
        "baseColorFactor": [
          0.00784314,
          0.00784314,
          0.0117647,
          1.0
        ],
        "metallicFactor": 0.0,
        "roughnessFactor": 0.6
      }
    },
    {
      "doubleSided": true,
      "name": "Ele_Tuskh",
      "pbrMetallicRoughness": {
        "baseColorTexture": {
          "index": 1
        },
        "metallicFactor": 0.0,
        "roughnessFactor": 0.6
      }
    }
  ],
  "meshes": [
    {
      "name": "MainEleM_ElphSkin_0",
      "primitives": [
        {
          "attributes": {
            "NORMAL": 1,
            "POSITION": 0,
            "TEXCOORD_0": 2
          },
          "indices": 3,
          "material": 0,
          "mode": 4
        }
      ]
    },
    {
      "name": "ElphEyeR_ElepEYE_0",
      "primitives": [
        {
          "attributes": {
            "NORMAL": 5,
            "POSITION": 4,
            "TEXCOORD_0": 6
          },
          "indices": 7,
          "material": 1,
          "mode": 4
        }
      ]
    },
    {
      "name": "ElphEyeL_ElepEYE_0",
      "primitives": [
        {
          "attributes": {
            "NORMAL": 9,
            "POSITION": 8,
            "TEXCOORD_0": 10
          },
          "indices": 11,
          "material": 1,
          "mode": 4
        }
      ]
    },
    {
      "name": "EleTuskR_Ele_Tuskh_0",
      "primitives": [
        {
          "attributes": {
            "NORMAL": 13,
            "POSITION": 12,
            "TEXCOORD_0": 14
          },
          "indices": 15,
          "material": 2,
          "mode": 4
        }
      ]
    },
    {
      "name": "EleTuskL_Ele_Tuskh_0",
      "primitives": [
        {
          "attributes": {
            "NORMAL": 17,
            "POSITION": 16,
            "TEXCOORD_0": 18
          },
          "indices": 19,
          "material": 2,
          "mode": 4
        }
      ]
    }
  ],
  "nodes": [
    {
      "children": [
        1
      ],
      "matrix": [
        1.0,
        0.0,
        0.0,
        0.0,
        0.0,
        2.220446049250313e-16,
        -1.0,
        0.0,
        0.0,
        1.0,
        2.220446049250313e-16,
        0.0,
        0.0,
        0.0,
        0.0,
        1.0
      ],
      "name": "Sketchfab_model"
    },
    {
      "children": [
        2
      ],
      "matrix": [
        1.0,
        0.0,
        0.0,
        0.0,
        0.0,
        0.0,
        1.0,
        0.0,
        0.0,
        -1.0,
        0.0,
        0.0,
        0.0,
        0.0,
        0.0,
        1.0
      ],
      "name": "c89610d9f79f4ff091a5463bf82d9c74.fbx"
    },
    {
      "children": [
        3,
        5
      ],
      "name": "RootNode"
    },
    {
      "children": [
        4
      ],
      "matrix": [
        -0.6667539179723694,
        -0.3329841223496842,
        -0.6667539179723697,
        0.0,
        -0.23545533094091264,
        0.9429324335619231,
        -0.2354553309409128,
        0.0,
        0.7071067811865478,
        -4.163336342344337e-17,
        -0.7071067811865472,
        0.0,
        1190.078369140625,
        952.371826171875,
        1337.211669921875,
        1.0
      ],
      "name": "CINEMA_4D_Editor"
    },
    {
      "name": "Object_4"
    },
    {
      "children": [
        6,
        7,
        9,
        11,
        13
      ],
      "matrix": [
        1.0,
        0.0,
        0.0,
        0.0,
        0.0,
        1.0,
        0.0,
        0.0,
        0.0,
        0.0,
        1.0,
        0.0,
        5.8990215620724484e-05,
        358.0338439941406,
        78.00691986083984,
        1.0
      ],
      "name": "MainEleM"
    },
    {
      "mesh": 0,
      "name": "MainEleM_ElphSkin_0"
    },
    {
      "children": [
        8
      ],
      "matrix": [
        1.0,
        0.0,
        0.0,
        0.0,
        0.0,
        1.0,
        0.0,
        0.0,
        0.0,
        0.0,
        1.0,
        0.0,
        -80.65520477294922,
        160.45724487304688,
        326.8330078125,
        1.0
      ],
      "name": "ElphEyeR"
    },
    {
      "mesh": 1,
      "name": "ElphEyeR_ElepEYE_0"
    },
    {
      "children": [
        10
      ],
      "matrix": [
        1.0,
        0.0,
        0.0,
        0.0,
        0.0,
        1.0,
        0.0,
        0.0,
        0.0,
        0.0,
        1.0,
        0.0,
        80.65508270263672,
        160.45724487304688,
        326.8330078125,
        1.0
      ],
      "name": "ElphEyeL"
    },
    {
      "mesh": 2,
      "name": "ElphEyeL_ElepEYE_0"
    },
    {
      "children": [
        12
      ],
      "matrix": [
        1.0,
        0.0,
        0.0,
        0.0,
        0.0,
        1.0,
        0.0,
        0.0,
        0.0,
        0.0,
        1.0,
        0.0,
        -101.73121643066406,
        40.282684326171875,
        490.6816101074219,
        1.0
      ],
      "name": "EleTuskR"
    },
    {
      "mesh": 3,
      "name": "EleTuskR_Ele_Tuskh_0"
    },
    {
      "children": [
        14
      ],
      "matrix": [
        1.0,
        0.0,
        0.0,
        0.0,
        0.0,
        1.0,
        0.0,
        0.0,
        0.0,
        0.0,
        1.0,
        0.0,
        101.73103332519531,
        40.282684326171875,
        490.6816711425781,
        1.0
      ],
      "name": "EleTuskL"
    },
    {
      "mesh": 4,
      "name": "EleTuskL_Ele_Tuskh_0"
    }
  ],
  "samplers": [
    {
      "magFilter": 9729,
      "minFilter": 9987,
      "wrapS": 10497,
      "wrapT": 10497
    }
  ],
  "scene": 0,
  "scenes": [
    {
      "name": "Sketchfab_Scene",
      "nodes": [
        0
      ]
    }
  ],
  "textures": [
    {
      "sampler": 0,
      "source": 0
    },
    {
      "sampler": 0,
      "source": 1
    }
  ]
}
